<mxfile host="65bd71144e" pages="3">
    <diagram id="8HCStm5KdboSv__WVgkv" name="sequence">
        <mxGraphModel dx="273" dy="510" grid="1" gridSize="10" guides="1" tooltips="1" connect="1" arrows="1" fold="1" page="1" pageScale="1" pageWidth="827" pageHeight="1169" math="0" shadow="0">
            <root>
                <mxCell id="0"/>
                <mxCell id="1" parent="0"/>
                <mxCell id="Dz7MXjapaTTVEsUoQ1y9-11" style="edgeStyle=orthogonalEdgeStyle;curved=1;rounded=0;orthogonalLoop=1;jettySize=auto;html=1;exitX=1;exitY=0;exitDx=0;exitDy=0;entryX=0.25;entryY=0;entryDx=0;entryDy=0;" parent="1" source="Dz7MXjapaTTVEsUoQ1y9-1" target="Dz7MXjapaTTVEsUoQ1y9-10" edge="1">
                    <mxGeometry relative="1" as="geometry">
                        <Array as="points">
                            <mxPoint x="167" y="144"/>
                            <mxPoint x="248" y="144"/>
                        </Array>
                    </mxGeometry>
                </mxCell>
                <mxCell id="Dz7MXjapaTTVEsUoQ1y9-1" value="Environment" style="ellipse;whiteSpace=wrap;html=1;fillColor=#d5e8d4;strokeColor=#82b366;" parent="1" vertex="1">
                    <mxGeometry x="90" y="160" width="90" height="40" as="geometry"/>
                </mxCell>
                <mxCell id="Dz7MXjapaTTVEsUoQ1y9-25" style="edgeStyle=orthogonalEdgeStyle;curved=1;rounded=0;orthogonalLoop=1;jettySize=auto;html=1;exitX=0;exitY=0.5;exitDx=0;exitDy=0;exitPerimeter=0;entryX=1;entryY=0.75;entryDx=0;entryDy=0;endArrow=none;endFill=0;startArrow=classic;startFill=1;" parent="1" source="Dz7MXjapaTTVEsUoQ1y9-4" target="Dz7MXjapaTTVEsUoQ1y9-10" edge="1">
                    <mxGeometry relative="1" as="geometry"/>
                </mxCell>
                <mxCell id="Dz7MXjapaTTVEsUoQ1y9-4" value="Parameter" style="shape=cylinder3;whiteSpace=wrap;html=1;boundedLbl=1;backgroundOutline=1;size=8.142857142857167;fillColor=#dae8fc;strokeColor=#6c8ebf;" parent="1" vertex="1">
                    <mxGeometry x="351.75" y="220" width="94" height="40" as="geometry"/>
                </mxCell>
                <mxCell id="Dz7MXjapaTTVEsUoQ1y9-23" style="edgeStyle=orthogonalEdgeStyle;curved=1;rounded=0;orthogonalLoop=1;jettySize=auto;html=1;exitX=0.5;exitY=1;exitDx=0;exitDy=0;entryX=1;entryY=0.5;entryDx=0;entryDy=0;entryPerimeter=0;" parent="1" source="Dz7MXjapaTTVEsUoQ1y9-6" target="Dz7MXjapaTTVEsUoQ1y9-4" edge="1">
                    <mxGeometry relative="1" as="geometry"/>
                </mxCell>
                <mxCell id="Dz7MXjapaTTVEsUoQ1y9-6" value="Trainer" style="rounded=1;whiteSpace=wrap;html=1;fillColor=#ffe6cc;strokeColor=#d79b00;" parent="1" vertex="1">
                    <mxGeometry x="500" y="170" width="70" height="38.75" as="geometry"/>
                </mxCell>
                <mxCell id="Dz7MXjapaTTVEsUoQ1y9-7" style="edgeStyle=orthogonalEdgeStyle;rounded=0;orthogonalLoop=1;jettySize=auto;html=1;curved=1;exitX=0;exitY=0;exitDx=0;exitDy=0;entryX=0;entryY=1;entryDx=0;entryDy=0;" parent="1" source="Dz7MXjapaTTVEsUoQ1y9-1" target="Dz7MXjapaTTVEsUoQ1y9-1" edge="1">
                    <mxGeometry relative="1" as="geometry">
                        <Array as="points">
                            <mxPoint x="70" y="166"/>
                            <mxPoint x="70" y="194"/>
                        </Array>
                    </mxGeometry>
                </mxCell>
                <mxCell id="Dz7MXjapaTTVEsUoQ1y9-8" value="step" style="text;html=1;strokeColor=none;fillColor=none;align=center;verticalAlign=middle;whiteSpace=wrap;rounded=0;" parent="1" vertex="1">
                    <mxGeometry x="20" y="165" width="60" height="30" as="geometry"/>
                </mxCell>
                <mxCell id="Dz7MXjapaTTVEsUoQ1y9-14" style="edgeStyle=orthogonalEdgeStyle;curved=1;rounded=0;orthogonalLoop=1;jettySize=auto;html=1;exitX=0.25;exitY=1;exitDx=0;exitDy=0;entryX=1;entryY=1;entryDx=0;entryDy=0;" parent="1" source="Dz7MXjapaTTVEsUoQ1y9-10" target="Dz7MXjapaTTVEsUoQ1y9-1" edge="1">
                    <mxGeometry relative="1" as="geometry">
                        <Array as="points">
                            <mxPoint x="248" y="230"/>
                            <mxPoint x="167" y="230"/>
                        </Array>
                    </mxGeometry>
                </mxCell>
                <mxCell id="Dz7MXjapaTTVEsUoQ1y9-17" style="edgeStyle=orthogonalEdgeStyle;curved=1;rounded=0;orthogonalLoop=1;jettySize=auto;html=1;exitX=1;exitY=0.25;exitDx=0;exitDy=0;entryX=0.5;entryY=1;entryDx=0;entryDy=0;entryPerimeter=0;" parent="1" source="Dz7MXjapaTTVEsUoQ1y9-10" target="Dz7MXjapaTTVEsUoQ1y9-3" edge="1">
                    <mxGeometry relative="1" as="geometry"/>
                </mxCell>
                <mxCell id="Dz7MXjapaTTVEsUoQ1y9-10" value="Worker" style="rounded=1;whiteSpace=wrap;html=1;fillColor=#fff2cc;strokeColor=#d6b656;" parent="1" vertex="1">
                    <mxGeometry x="230" y="163.75" width="70" height="45" as="geometry"/>
                </mxCell>
                <mxCell id="Dz7MXjapaTTVEsUoQ1y9-12" value="observation&lt;br&gt;reward" style="text;html=1;strokeColor=none;fillColor=none;align=center;verticalAlign=middle;whiteSpace=wrap;rounded=0;" parent="1" vertex="1">
                    <mxGeometry x="180" y="110" width="60" height="30" as="geometry"/>
                </mxCell>
                <mxCell id="Dz7MXjapaTTVEsUoQ1y9-15" value="action" style="text;html=1;strokeColor=none;fillColor=none;align=center;verticalAlign=middle;whiteSpace=wrap;rounded=0;" parent="1" vertex="1">
                    <mxGeometry x="180" y="230" width="60" height="30" as="geometry"/>
                </mxCell>
                <mxCell id="Dz7MXjapaTTVEsUoQ1y9-16" value="" style="group" parent="1" vertex="1" connectable="0">
                    <mxGeometry x="340" y="128.75" width="137.5" height="32.5" as="geometry"/>
                </mxCell>
                <mxCell id="Dz7MXjapaTTVEsUoQ1y9-3" value="" style="shape=cylinder3;whiteSpace=wrap;html=1;boundedLbl=1;backgroundOutline=1;size=15;rotation=90;fillColor=#dae8fc;strokeColor=#6c8ebf;" parent="Dz7MXjapaTTVEsUoQ1y9-16" vertex="1">
                    <mxGeometry x="52.5" y="-52.5" width="32.5" height="137.5" as="geometry"/>
                </mxCell>
                <mxCell id="Dz7MXjapaTTVEsUoQ1y9-5" value="RemoteMemory" style="text;html=1;strokeColor=none;fillColor=none;align=center;verticalAlign=middle;whiteSpace=wrap;rounded=0;" parent="Dz7MXjapaTTVEsUoQ1y9-16" vertex="1">
                    <mxGeometry x="25" y="1.25" width="60" height="30" as="geometry"/>
                </mxCell>
                <mxCell id="Dz7MXjapaTTVEsUoQ1y9-18" value="add batch" style="text;html=1;strokeColor=none;fillColor=none;align=center;verticalAlign=middle;whiteSpace=wrap;rounded=0;" parent="1" vertex="1">
                    <mxGeometry x="280" y="120" width="60" height="30" as="geometry"/>
                </mxCell>
                <mxCell id="Dz7MXjapaTTVEsUoQ1y9-19" style="edgeStyle=orthogonalEdgeStyle;curved=1;rounded=0;orthogonalLoop=1;jettySize=auto;html=1;exitX=0.5;exitY=0;exitDx=0;exitDy=0;exitPerimeter=0;entryX=0.5;entryY=0;entryDx=0;entryDy=0;" parent="1" source="Dz7MXjapaTTVEsUoQ1y9-3" target="Dz7MXjapaTTVEsUoQ1y9-6" edge="1">
                    <mxGeometry relative="1" as="geometry"/>
                </mxCell>
                <mxCell id="Dz7MXjapaTTVEsUoQ1y9-20" value="sample batch" style="text;html=1;strokeColor=none;fillColor=none;align=center;verticalAlign=middle;whiteSpace=wrap;rounded=0;" parent="1" vertex="1">
                    <mxGeometry x="480" y="120" width="90" height="30" as="geometry"/>
                </mxCell>
                <mxCell id="Dz7MXjapaTTVEsUoQ1y9-24" value="update" style="text;html=1;strokeColor=none;fillColor=none;align=center;verticalAlign=middle;whiteSpace=wrap;rounded=0;" parent="1" vertex="1">
                    <mxGeometry x="480" y="230" width="85" height="30" as="geometry"/>
                </mxCell>
                <mxCell id="Dz7MXjapaTTVEsUoQ1y9-26" value="read" style="text;html=1;strokeColor=none;fillColor=none;align=center;verticalAlign=middle;whiteSpace=wrap;rounded=0;" parent="1" vertex="1">
                    <mxGeometry x="291.75" y="230" width="60" height="30" as="geometry"/>
                </mxCell>
                <mxCell id="1H51r3odysx_p06SB7lt-1" style="edgeStyle=orthogonalEdgeStyle;curved=1;rounded=0;orthogonalLoop=1;jettySize=auto;html=1;" parent="1" source="Dz7MXjapaTTVEsUoQ1y9-6" target="Dz7MXjapaTTVEsUoQ1y9-6" edge="1">
                    <mxGeometry relative="1" as="geometry">
                        <mxPoint x="545" y="218.75" as="sourcePoint"/>
                        <mxPoint x="455.75" y="250" as="targetPoint"/>
                    </mxGeometry>
                </mxCell>
                <mxCell id="1H51r3odysx_p06SB7lt-2" value="train" style="text;html=1;strokeColor=none;fillColor=none;align=center;verticalAlign=middle;whiteSpace=wrap;rounded=0;" parent="1" vertex="1">
                    <mxGeometry x="570" y="174.38" width="85" height="30" as="geometry"/>
                </mxCell>
            </root>
        </mxGraphModel>
    </diagram>
    <diagram id="YnyO58ju2ZsBTfj123Jh" name="distributed">
        <mxGraphModel dx="273" dy="510" grid="1" gridSize="10" guides="1" tooltips="1" connect="1" arrows="1" fold="1" page="1" pageScale="1" pageWidth="827" pageHeight="1169" math="0" shadow="0">
            <root>
                <mxCell id="Gu4-0b2xn2e90pc047bY-0"/>
                <mxCell id="Gu4-0b2xn2e90pc047bY-1" parent="Gu4-0b2xn2e90pc047bY-0"/>
                <mxCell id="szc0OzaTAx6EitnLWger-1" value="" style="rounded=0;whiteSpace=wrap;html=1;fillColor=#f5f5f5;fontColor=#333333;strokeColor=#666666;" parent="Gu4-0b2xn2e90pc047bY-1" vertex="1">
                    <mxGeometry x="500" y="163.75" width="165" height="137.5" as="geometry"/>
                </mxCell>
                <mxCell id="wtMo23867lj7A6iBCIME-0" value="" style="rounded=0;whiteSpace=wrap;html=1;fillColor=#f5f5f5;fontColor=#333333;strokeColor=#666666;" parent="Gu4-0b2xn2e90pc047bY-1" vertex="1">
                    <mxGeometry x="60" y="130" width="290" height="90" as="geometry"/>
                </mxCell>
                <mxCell id="RoZq5j0I4huKhHa5UfBf-0" style="edgeStyle=none;rounded=0;orthogonalLoop=1;jettySize=auto;html=1;exitX=1;exitY=0.5;exitDx=0;exitDy=0;startArrow=classic;startFill=1;" parent="Gu4-0b2xn2e90pc047bY-1" source="hCgiPdKvAsC8QuEQ23qE-1" target="hCgiPdKvAsC8QuEQ23qE-10" edge="1">
                    <mxGeometry relative="1" as="geometry"/>
                </mxCell>
                <mxCell id="hCgiPdKvAsC8QuEQ23qE-1" value="Environment" style="ellipse;whiteSpace=wrap;html=1;fillColor=#d5e8d4;strokeColor=#82b366;" parent="Gu4-0b2xn2e90pc047bY-1" vertex="1">
                    <mxGeometry x="70" y="137.5" width="90" height="40" as="geometry"/>
                </mxCell>
                <mxCell id="hCgiPdKvAsC8QuEQ23qE-4" style="rounded=0;orthogonalLoop=1;jettySize=auto;html=1;exitX=0.5;exitY=1;exitDx=0;exitDy=0;entryX=0.5;entryY=0;entryDx=0;entryDy=0;entryPerimeter=0;" parent="Gu4-0b2xn2e90pc047bY-1" source="hCgiPdKvAsC8QuEQ23qE-5" target="3Zu5WteFrr1FcEvkHmud-0" edge="1">
                    <mxGeometry relative="1" as="geometry"/>
                </mxCell>
                <mxCell id="hCgiPdKvAsC8QuEQ23qE-5" value="Trainer" style="rounded=1;whiteSpace=wrap;html=1;fillColor=#ffe6cc;strokeColor=#d79b00;" parent="Gu4-0b2xn2e90pc047bY-1" vertex="1">
                    <mxGeometry x="572.25" y="194.38" width="70" height="38.75" as="geometry"/>
                </mxCell>
                <mxCell id="hCgiPdKvAsC8QuEQ23qE-9" style="edgeStyle=orthogonalEdgeStyle;curved=1;rounded=0;orthogonalLoop=1;jettySize=auto;html=1;exitX=1;exitY=0.5;exitDx=0;exitDy=0;entryX=0.5;entryY=1;entryDx=0;entryDy=0;entryPerimeter=0;" parent="Gu4-0b2xn2e90pc047bY-1" source="hCgiPdKvAsC8QuEQ23qE-10" target="hCgiPdKvAsC8QuEQ23qE-14" edge="1">
                    <mxGeometry relative="1" as="geometry"/>
                </mxCell>
                <mxCell id="hCgiPdKvAsC8QuEQ23qE-10" value="Worker" style="rounded=1;whiteSpace=wrap;html=1;fillColor=#fff2cc;strokeColor=#d6b656;" parent="Gu4-0b2xn2e90pc047bY-1" vertex="1">
                    <mxGeometry x="191" y="142.5" width="60" height="30" as="geometry"/>
                </mxCell>
                <mxCell id="hCgiPdKvAsC8QuEQ23qE-13" value="" style="group" parent="Gu4-0b2xn2e90pc047bY-1" vertex="1" connectable="0">
                    <mxGeometry x="387.75" y="128.75" width="137.5" height="32.5" as="geometry"/>
                </mxCell>
                <mxCell id="hCgiPdKvAsC8QuEQ23qE-14" value="" style="shape=cylinder3;whiteSpace=wrap;html=1;boundedLbl=1;backgroundOutline=1;size=15;rotation=90;fillColor=#dae8fc;strokeColor=#6c8ebf;" parent="hCgiPdKvAsC8QuEQ23qE-13" vertex="1">
                    <mxGeometry x="52.5" y="-52.5" width="32.5" height="137.5" as="geometry"/>
                </mxCell>
                <mxCell id="hCgiPdKvAsC8QuEQ23qE-15" value="RemoteMemory" style="text;html=1;strokeColor=none;fillColor=none;align=center;verticalAlign=middle;whiteSpace=wrap;rounded=0;" parent="hCgiPdKvAsC8QuEQ23qE-13" vertex="1">
                    <mxGeometry x="25" y="1.25" width="60" height="30" as="geometry"/>
                </mxCell>
                <mxCell id="hCgiPdKvAsC8QuEQ23qE-17" style="edgeStyle=orthogonalEdgeStyle;curved=1;rounded=0;orthogonalLoop=1;jettySize=auto;html=1;exitX=0.5;exitY=0;exitDx=0;exitDy=0;exitPerimeter=0;entryX=0.5;entryY=0;entryDx=0;entryDy=0;" parent="Gu4-0b2xn2e90pc047bY-1" source="hCgiPdKvAsC8QuEQ23qE-14" target="hCgiPdKvAsC8QuEQ23qE-5" edge="1">
                    <mxGeometry relative="1" as="geometry"/>
                </mxCell>
                <mxCell id="hCgiPdKvAsC8QuEQ23qE-18" value="sample batch" style="text;html=1;strokeColor=none;fillColor=none;align=center;verticalAlign=middle;whiteSpace=wrap;rounded=0;" parent="Gu4-0b2xn2e90pc047bY-1" vertex="1">
                    <mxGeometry x="540" y="120" width="90" height="30" as="geometry"/>
                </mxCell>
                <mxCell id="hCgiPdKvAsC8QuEQ23qE-19" value="update" style="text;html=1;strokeColor=none;fillColor=none;align=center;verticalAlign=middle;whiteSpace=wrap;rounded=0;" parent="Gu4-0b2xn2e90pc047bY-1" vertex="1">
                    <mxGeometry x="535" y="226.88" width="85" height="30" as="geometry"/>
                </mxCell>
                <mxCell id="tBLzW1-dSC8KAft304s7-12" style="rounded=0;orthogonalLoop=1;jettySize=auto;html=1;exitX=0;exitY=0.5;exitDx=0;exitDy=0;exitPerimeter=0;startArrow=none;startFill=0;entryX=1;entryY=0.5;entryDx=0;entryDy=0;" parent="Gu4-0b2xn2e90pc047bY-1" source="3Zu5WteFrr1FcEvkHmud-0" target="3Zu5WteFrr1FcEvkHmud-2" edge="1">
                    <mxGeometry relative="1" as="geometry">
                        <mxPoint x="505" y="278.13" as="targetPoint"/>
                    </mxGeometry>
                </mxCell>
                <mxCell id="3Zu5WteFrr1FcEvkHmud-0" value="Parameter" style="shape=cylinder3;whiteSpace=wrap;html=1;boundedLbl=1;backgroundOutline=1;size=8.142857142857167;fillColor=#dae8fc;strokeColor=#6c8ebf;" parent="Gu4-0b2xn2e90pc047bY-1" vertex="1">
                    <mxGeometry x="560.25" y="258.13" width="94" height="40" as="geometry"/>
                </mxCell>
                <mxCell id="3Zu5WteFrr1FcEvkHmud-2" value="Board" style="rounded=1;whiteSpace=wrap;html=1;fillColor=#e1d5e7;strokeColor=#9673a6;" parent="Gu4-0b2xn2e90pc047bY-1" vertex="1">
                    <mxGeometry x="420" y="263.13" width="50" height="30" as="geometry"/>
                </mxCell>
                <mxCell id="3Zu5WteFrr1FcEvkHmud-5" value="write" style="text;html=1;strokeColor=none;fillColor=none;align=center;verticalAlign=middle;whiteSpace=wrap;rounded=0;" parent="Gu4-0b2xn2e90pc047bY-1" vertex="1">
                    <mxGeometry x="475.25" y="247.5" width="85" height="30" as="geometry"/>
                </mxCell>
                <mxCell id="AqlXkb-w7h_acBey4eJv-0" value="write" style="text;html=1;strokeColor=none;fillColor=none;align=center;verticalAlign=middle;whiteSpace=wrap;rounded=0;" parent="Gu4-0b2xn2e90pc047bY-1" vertex="1">
                    <mxGeometry x="360" y="230" width="85" height="30" as="geometry"/>
                </mxCell>
                <mxCell id="wtMo23867lj7A6iBCIME-1" value="TrainerProcess&lt;br&gt;" style="text;html=1;strokeColor=none;fillColor=none;align=center;verticalAlign=middle;whiteSpace=wrap;rounded=0;" parent="Gu4-0b2xn2e90pc047bY-1" vertex="1">
                    <mxGeometry x="525" y="161.25" width="60" height="30" as="geometry"/>
                </mxCell>
                <mxCell id="s0bxHy9ZseCvG_myIAhX-0" style="edgeStyle=orthogonalEdgeStyle;rounded=0;orthogonalLoop=1;jettySize=auto;html=1;exitX=0;exitY=0.5;exitDx=0;exitDy=0;exitPerimeter=0;entryX=0.5;entryY=1;entryDx=0;entryDy=0;startArrow=classic;startFill=1;endArrow=none;endFill=0;" parent="Gu4-0b2xn2e90pc047bY-1" source="hCgiPdKvAsC8QuEQ23qE-3" target="hCgiPdKvAsC8QuEQ23qE-10" edge="1">
                    <mxGeometry relative="1" as="geometry"/>
                </mxCell>
                <mxCell id="hCgiPdKvAsC8QuEQ23qE-3" value="Parameter" style="shape=cylinder3;whiteSpace=wrap;html=1;boundedLbl=1;backgroundOutline=1;size=8.142857142857167;fillColor=#dae8fc;strokeColor=#6c8ebf;" parent="Gu4-0b2xn2e90pc047bY-1" vertex="1">
                    <mxGeometry x="251" y="173.75" width="84" height="40" as="geometry"/>
                </mxCell>
                <mxCell id="tBLzW1-dSC8KAft304s7-1" value="" style="rounded=0;whiteSpace=wrap;html=1;fillColor=#f5f5f5;fontColor=#333333;strokeColor=#666666;" parent="Gu4-0b2xn2e90pc047bY-1" vertex="1">
                    <mxGeometry x="60" y="265" width="290" height="90" as="geometry"/>
                </mxCell>
                <mxCell id="tBLzW1-dSC8KAft304s7-2" style="edgeStyle=none;rounded=0;orthogonalLoop=1;jettySize=auto;html=1;exitX=1;exitY=0.5;exitDx=0;exitDy=0;startArrow=classic;startFill=1;" parent="Gu4-0b2xn2e90pc047bY-1" source="tBLzW1-dSC8KAft304s7-3" target="tBLzW1-dSC8KAft304s7-4" edge="1">
                    <mxGeometry relative="1" as="geometry"/>
                </mxCell>
                <mxCell id="tBLzW1-dSC8KAft304s7-3" value="Environment" style="ellipse;whiteSpace=wrap;html=1;fillColor=#d5e8d4;strokeColor=#82b366;" parent="Gu4-0b2xn2e90pc047bY-1" vertex="1">
                    <mxGeometry x="70" y="272.5" width="90" height="40" as="geometry"/>
                </mxCell>
                <mxCell id="tBLzW1-dSC8KAft304s7-4" value="Worker" style="rounded=1;whiteSpace=wrap;html=1;fillColor=#fff2cc;strokeColor=#d6b656;" parent="Gu4-0b2xn2e90pc047bY-1" vertex="1">
                    <mxGeometry x="191" y="277.5" width="60" height="30" as="geometry"/>
                </mxCell>
                <mxCell id="tBLzW1-dSC8KAft304s7-5" value="add batch" style="text;html=1;strokeColor=none;fillColor=none;align=center;verticalAlign=middle;whiteSpace=wrap;rounded=0;" parent="Gu4-0b2xn2e90pc047bY-1" vertex="1">
                    <mxGeometry x="340" y="98.75" width="60" height="30" as="geometry"/>
                </mxCell>
                <mxCell id="tBLzW1-dSC8KAft304s7-7" value="WorkerProcess2" style="text;html=1;strokeColor=none;fillColor=none;align=center;verticalAlign=middle;whiteSpace=wrap;rounded=0;" parent="Gu4-0b2xn2e90pc047bY-1" vertex="1">
                    <mxGeometry x="85" y="325" width="60" height="30" as="geometry"/>
                </mxCell>
                <mxCell id="tBLzW1-dSC8KAft304s7-8" style="edgeStyle=orthogonalEdgeStyle;rounded=0;orthogonalLoop=1;jettySize=auto;html=1;exitX=0;exitY=0.5;exitDx=0;exitDy=0;exitPerimeter=0;entryX=0.5;entryY=1;entryDx=0;entryDy=0;startArrow=classic;startFill=1;endArrow=none;endFill=0;" parent="Gu4-0b2xn2e90pc047bY-1" source="tBLzW1-dSC8KAft304s7-9" target="tBLzW1-dSC8KAft304s7-4" edge="1">
                    <mxGeometry relative="1" as="geometry"/>
                </mxCell>
                <mxCell id="tBLzW1-dSC8KAft304s7-9" value="Parameter" style="shape=cylinder3;whiteSpace=wrap;html=1;boundedLbl=1;backgroundOutline=1;size=8.142857142857167;fillColor=#dae8fc;strokeColor=#6c8ebf;" parent="Gu4-0b2xn2e90pc047bY-1" vertex="1">
                    <mxGeometry x="251" y="308.75" width="84" height="40" as="geometry"/>
                </mxCell>
                <mxCell id="3Zu5WteFrr1FcEvkHmud-4" style="edgeStyle=orthogonalEdgeStyle;curved=1;rounded=0;orthogonalLoop=1;jettySize=auto;html=1;exitX=0;exitY=0.5;exitDx=0;exitDy=0;entryX=1;entryY=0.5;entryDx=0;entryDy=0;entryPerimeter=0;" parent="Gu4-0b2xn2e90pc047bY-1" source="3Zu5WteFrr1FcEvkHmud-2" target="tBLzW1-dSC8KAft304s7-9" edge="1">
                    <mxGeometry relative="1" as="geometry">
                        <mxPoint x="340" y="280" as="targetPoint"/>
                    </mxGeometry>
                </mxCell>
                <mxCell id="tBLzW1-dSC8KAft304s7-11" style="edgeStyle=orthogonalEdgeStyle;curved=1;rounded=0;orthogonalLoop=1;jettySize=auto;html=1;exitX=0;exitY=0.5;exitDx=0;exitDy=0;entryX=1;entryY=0.5;entryDx=0;entryDy=0;entryPerimeter=0;" parent="Gu4-0b2xn2e90pc047bY-1" source="3Zu5WteFrr1FcEvkHmud-2" target="hCgiPdKvAsC8QuEQ23qE-3" edge="1">
                    <mxGeometry relative="1" as="geometry">
                        <mxPoint x="430" y="289.375" as="sourcePoint"/>
                        <mxPoint x="345" y="338.75" as="targetPoint"/>
                    </mxGeometry>
                </mxCell>
                <mxCell id="szc0OzaTAx6EitnLWger-0" style="edgeStyle=orthogonalEdgeStyle;curved=1;rounded=0;orthogonalLoop=1;jettySize=auto;html=1;exitX=1;exitY=0.5;exitDx=0;exitDy=0;entryX=0.5;entryY=1;entryDx=0;entryDy=0;entryPerimeter=0;" parent="Gu4-0b2xn2e90pc047bY-1" source="tBLzW1-dSC8KAft304s7-4" target="hCgiPdKvAsC8QuEQ23qE-14" edge="1">
                    <mxGeometry relative="1" as="geometry">
                        <mxPoint x="270" y="172.5" as="sourcePoint"/>
                        <mxPoint x="397.75" y="155" as="targetPoint"/>
                        <Array as="points">
                            <mxPoint x="360" y="292"/>
                            <mxPoint x="360" y="145"/>
                        </Array>
                    </mxGeometry>
                </mxCell>
                <mxCell id="szc0OzaTAx6EitnLWger-2" value="WorkerProcess1" style="text;html=1;strokeColor=none;fillColor=none;align=center;verticalAlign=middle;whiteSpace=wrap;rounded=0;" parent="Gu4-0b2xn2e90pc047bY-1" vertex="1">
                    <mxGeometry x="85" y="190" width="60" height="30" as="geometry"/>
                </mxCell>
                <mxCell id="OitwZkqVeGQr4RYmDPEj-0" value="read" style="text;html=1;strokeColor=none;fillColor=none;align=center;verticalAlign=middle;whiteSpace=wrap;rounded=0;" parent="Gu4-0b2xn2e90pc047bY-1" vertex="1">
                    <mxGeometry x="178.5" y="190" width="85" height="30" as="geometry"/>
                </mxCell>
                <mxCell id="OitwZkqVeGQr4RYmDPEj-1" value="read" style="text;html=1;strokeColor=none;fillColor=none;align=center;verticalAlign=middle;whiteSpace=wrap;rounded=0;" parent="Gu4-0b2xn2e90pc047bY-1" vertex="1">
                    <mxGeometry x="178.5" y="325" width="85" height="30" as="geometry"/>
                </mxCell>
            </root>
        </mxGraphModel>
    </diagram>
    <diagram id="8ljoofoabtsPVLnk0Y_w" name="multiplay">
        <mxGraphModel dx="729" dy="425" grid="1" gridSize="10" guides="1" tooltips="1" connect="1" arrows="1" fold="1" page="1" pageScale="1" pageWidth="827" pageHeight="1169" math="0" shadow="0">
            <root>
                <mxCell id="-tAiIZP5slMnOxf2c5f_-0"/>
                <mxCell id="-tAiIZP5slMnOxf2c5f_-1" parent="-tAiIZP5slMnOxf2c5f_-0"/>
                <mxCell id="ICPPX069PQIvm9u3WEIN-1" value="Environment" style="ellipse;whiteSpace=wrap;html=1;fillColor=#d5e8d4;strokeColor=#82b366;" parent="-tAiIZP5slMnOxf2c5f_-1" vertex="1">
                    <mxGeometry x="80" y="192.5" width="90" height="40" as="geometry"/>
                </mxCell>
                <mxCell id="ICPPX069PQIvm9u3WEIN-2" style="edgeStyle=orthogonalEdgeStyle;curved=1;rounded=0;orthogonalLoop=1;jettySize=auto;html=1;exitX=0;exitY=0.5;exitDx=0;exitDy=0;exitPerimeter=0;entryX=1;entryY=0.75;entryDx=0;entryDy=0;startArrow=classic;startFill=1;endArrow=none;endFill=0;" parent="-tAiIZP5slMnOxf2c5f_-1" source="ICPPX069PQIvm9u3WEIN-3" target="ICPPX069PQIvm9u3WEIN-10" edge="1">
                    <mxGeometry relative="1" as="geometry"/>
                </mxCell>
                <mxCell id="ICPPX069PQIvm9u3WEIN-3" value="Parameters" style="shape=cylinder3;whiteSpace=wrap;html=1;boundedLbl=1;backgroundOutline=1;size=8.142857142857167;fillColor=#dae8fc;strokeColor=#6c8ebf;" parent="-tAiIZP5slMnOxf2c5f_-1" vertex="1">
                    <mxGeometry x="490" y="220" width="94" height="40" as="geometry"/>
                </mxCell>
                <mxCell id="ICPPX069PQIvm9u3WEIN-4" style="edgeStyle=orthogonalEdgeStyle;curved=1;rounded=0;orthogonalLoop=1;jettySize=auto;html=1;exitX=0.5;exitY=1;exitDx=0;exitDy=0;entryX=1;entryY=0.5;entryDx=0;entryDy=0;entryPerimeter=0;" parent="-tAiIZP5slMnOxf2c5f_-1" source="ICPPX069PQIvm9u3WEIN-5" target="ICPPX069PQIvm9u3WEIN-3" edge="1">
                    <mxGeometry relative="1" as="geometry"/>
                </mxCell>
                <mxCell id="ICPPX069PQIvm9u3WEIN-5" value="Trainer" style="rounded=1;whiteSpace=wrap;html=1;fillColor=#ffe6cc;strokeColor=#d79b00;" parent="-tAiIZP5slMnOxf2c5f_-1" vertex="1">
                    <mxGeometry x="620" y="170" width="70" height="38.75" as="geometry"/>
                </mxCell>
                <mxCell id="ICPPX069PQIvm9u3WEIN-9" style="edgeStyle=orthogonalEdgeStyle;curved=1;rounded=0;orthogonalLoop=1;jettySize=auto;html=1;exitX=1;exitY=0.25;exitDx=0;exitDy=0;entryX=0.5;entryY=1;entryDx=0;entryDy=0;entryPerimeter=0;" parent="-tAiIZP5slMnOxf2c5f_-1" source="ICPPX069PQIvm9u3WEIN-10" target="ICPPX069PQIvm9u3WEIN-14" edge="1">
                    <mxGeometry relative="1" as="geometry"/>
                </mxCell>
                <mxCell id="ICPPX069PQIvm9u3WEIN-10" value="WorkerA" style="rounded=1;whiteSpace=wrap;html=1;fillColor=#fff2cc;strokeColor=#d6b656;" parent="-tAiIZP5slMnOxf2c5f_-1" vertex="1">
                    <mxGeometry x="350" y="163.75" width="70" height="45" as="geometry"/>
                </mxCell>
                <mxCell id="ICPPX069PQIvm9u3WEIN-12" value="action" style="text;html=1;strokeColor=none;fillColor=none;align=center;verticalAlign=middle;whiteSpace=wrap;rounded=0;" parent="-tAiIZP5slMnOxf2c5f_-1" vertex="1">
                    <mxGeometry x="190" y="200" width="60" height="30" as="geometry"/>
                </mxCell>
                <mxCell id="ICPPX069PQIvm9u3WEIN-13" value="" style="group" parent="-tAiIZP5slMnOxf2c5f_-1" vertex="1" connectable="0">
                    <mxGeometry x="460" y="128.75" width="137.5" height="32.5" as="geometry"/>
                </mxCell>
                <mxCell id="ICPPX069PQIvm9u3WEIN-14" value="" style="shape=cylinder3;whiteSpace=wrap;html=1;boundedLbl=1;backgroundOutline=1;size=15;rotation=90;fillColor=#dae8fc;strokeColor=#6c8ebf;" parent="ICPPX069PQIvm9u3WEIN-13" vertex="1">
                    <mxGeometry x="52.5" y="-52.5" width="32.5" height="137.5" as="geometry"/>
                </mxCell>
                <mxCell id="ICPPX069PQIvm9u3WEIN-15" value="RemoteMemory" style="text;html=1;strokeColor=none;fillColor=none;align=center;verticalAlign=middle;whiteSpace=wrap;rounded=0;" parent="ICPPX069PQIvm9u3WEIN-13" vertex="1">
                    <mxGeometry x="25" y="1.25" width="60" height="30" as="geometry"/>
                </mxCell>
                <mxCell id="ICPPX069PQIvm9u3WEIN-16" value="add batch" style="text;html=1;strokeColor=none;fillColor=none;align=center;verticalAlign=middle;whiteSpace=wrap;rounded=0;" parent="-tAiIZP5slMnOxf2c5f_-1" vertex="1">
                    <mxGeometry x="400" y="110" width="60" height="30" as="geometry"/>
                </mxCell>
                <mxCell id="ICPPX069PQIvm9u3WEIN-17" style="edgeStyle=orthogonalEdgeStyle;curved=1;rounded=0;orthogonalLoop=1;jettySize=auto;html=1;exitX=0.5;exitY=0;exitDx=0;exitDy=0;exitPerimeter=0;entryX=0.5;entryY=0;entryDx=0;entryDy=0;" parent="-tAiIZP5slMnOxf2c5f_-1" source="ICPPX069PQIvm9u3WEIN-14" target="ICPPX069PQIvm9u3WEIN-5" edge="1">
                    <mxGeometry relative="1" as="geometry"/>
                </mxCell>
                <mxCell id="ICPPX069PQIvm9u3WEIN-18" value="sample batch" style="text;html=1;strokeColor=none;fillColor=none;align=center;verticalAlign=middle;whiteSpace=wrap;rounded=0;" parent="-tAiIZP5slMnOxf2c5f_-1" vertex="1">
                    <mxGeometry x="600" y="120" width="90" height="30" as="geometry"/>
                </mxCell>
                <mxCell id="ICPPX069PQIvm9u3WEIN-19" value="update" style="text;html=1;strokeColor=none;fillColor=none;align=center;verticalAlign=middle;whiteSpace=wrap;rounded=0;" parent="-tAiIZP5slMnOxf2c5f_-1" vertex="1">
                    <mxGeometry x="600" y="230" width="85" height="30" as="geometry"/>
                </mxCell>
                <mxCell id="ICPPX069PQIvm9u3WEIN-20" value="read" style="text;html=1;strokeColor=none;fillColor=none;align=center;verticalAlign=middle;whiteSpace=wrap;rounded=0;" parent="-tAiIZP5slMnOxf2c5f_-1" vertex="1">
                    <mxGeometry x="450" y="192.5" width="60" height="30" as="geometry"/>
                </mxCell>
                <mxCell id="ICPPX069PQIvm9u3WEIN-24" style="rounded=0;orthogonalLoop=1;jettySize=auto;html=1;exitX=1;exitY=0.5;exitDx=0;exitDy=0;entryX=0;entryY=0.5;entryDx=0;entryDy=0;dashed=1;" parent="-tAiIZP5slMnOxf2c5f_-1" source="ICPPX069PQIvm9u3WEIN-21" target="ICPPX069PQIvm9u3WEIN-23" edge="1">
                    <mxGeometry relative="1" as="geometry"/>
                </mxCell>
                <mxCell id="ICPPX069PQIvm9u3WEIN-26" style="edgeStyle=none;rounded=0;orthogonalLoop=1;jettySize=auto;html=1;exitX=0;exitY=0.5;exitDx=0;exitDy=0;dashed=1;" parent="-tAiIZP5slMnOxf2c5f_-1" source="ICPPX069PQIvm9u3WEIN-21" target="ICPPX069PQIvm9u3WEIN-1" edge="1">
                    <mxGeometry relative="1" as="geometry"/>
                </mxCell>
                <mxCell id="ICPPX069PQIvm9u3WEIN-21" value="Player1" style="rounded=1;whiteSpace=wrap;html=1;" parent="-tAiIZP5slMnOxf2c5f_-1" vertex="1">
                    <mxGeometry x="250" y="163.75" width="70" height="45" as="geometry"/>
                </mxCell>
                <mxCell id="ICPPX069PQIvm9u3WEIN-25" style="edgeStyle=none;rounded=0;orthogonalLoop=1;jettySize=auto;html=1;exitX=1;exitY=0.5;exitDx=0;exitDy=0;entryX=0;entryY=0.5;entryDx=0;entryDy=0;dashed=1;" parent="-tAiIZP5slMnOxf2c5f_-1" source="ICPPX069PQIvm9u3WEIN-22" target="ICPPX069PQIvm9u3WEIN-10" edge="1">
                    <mxGeometry relative="1" as="geometry"/>
                </mxCell>
                <mxCell id="ICPPX069PQIvm9u3WEIN-27" style="edgeStyle=none;rounded=0;orthogonalLoop=1;jettySize=auto;html=1;exitX=0;exitY=0.5;exitDx=0;exitDy=0;dashed=1;" parent="-tAiIZP5slMnOxf2c5f_-1" source="ICPPX069PQIvm9u3WEIN-22" target="ICPPX069PQIvm9u3WEIN-1" edge="1">
                    <mxGeometry relative="1" as="geometry"/>
                </mxCell>
                <mxCell id="ICPPX069PQIvm9u3WEIN-22" value="Player2" style="rounded=1;whiteSpace=wrap;html=1;" parent="-tAiIZP5slMnOxf2c5f_-1" vertex="1">
                    <mxGeometry x="250" y="232.5" width="70" height="45" as="geometry"/>
                </mxCell>
                <mxCell id="ICPPX069PQIvm9u3WEIN-23" value="WorkerB" style="rounded=1;whiteSpace=wrap;html=1;fillColor=#fff2cc;strokeColor=#d6b656;" parent="-tAiIZP5slMnOxf2c5f_-1" vertex="1">
                    <mxGeometry x="350" y="232.5" width="70" height="45" as="geometry"/>
                </mxCell>
                <mxCell id="osS0iRUtnIAjyUpLZgLp-0" value="shuffle" style="text;html=1;strokeColor=none;fillColor=none;align=center;verticalAlign=middle;whiteSpace=wrap;rounded=0;" parent="-tAiIZP5slMnOxf2c5f_-1" vertex="1">
                    <mxGeometry x="310" y="277.5" width="60" height="30" as="geometry"/>
                </mxCell>
            </root>
        </mxGraphModel>
    </diagram>
</mxfile>